<mxfile host="app.diagrams.net" modified="2023-12-06T02:23:41.073Z" agent="Mozilla/5.0 (Windows NT 10.0; Win64; x64; rv:120.0) Gecko/20100101 Firefox/120.0" etag="IiLNav9apLQUu7AiBMaA" version="22.1.5" type="device">
  <diagram name="페이지-1" id="b1_UZGlTyPNUF9xH9-Hf">
    <mxGraphModel dx="922" dy="748" grid="1" gridSize="10" guides="1" tooltips="1" connect="1" arrows="1" fold="1" page="1" pageScale="1" pageWidth="1169" pageHeight="827" math="0" shadow="0">
      <root>
        <mxCell id="0" />
        <mxCell id="1" parent="0" />
        <mxCell id="9tLvCL6xs8VzNFjyvoNF-1" value="&lt;font style=&quot;font-size: 17px;&quot;&gt;&lt;b&gt;회원가입&lt;/b&gt;&lt;/font&gt;" style="ellipse;whiteSpace=wrap;html=1;" parent="1" vertex="1">
          <mxGeometry x="200" y="30" width="120" height="30" as="geometry" />
        </mxCell>
        <mxCell id="9tLvCL6xs8VzNFjyvoNF-4" value="&lt;font style=&quot;font-size: 17px;&quot;&gt;&lt;b&gt;게시판 열람&lt;/b&gt;&lt;/font&gt;" style="ellipse;whiteSpace=wrap;html=1;" parent="1" vertex="1">
          <mxGeometry x="200" y="130" width="120" height="30" as="geometry" />
        </mxCell>
        <mxCell id="9tLvCL6xs8VzNFjyvoNF-5" value="&lt;font style=&quot;font-size: 17px;&quot;&gt;&lt;b&gt;갤러리 열람&lt;/b&gt;&lt;/font&gt;" style="ellipse;whiteSpace=wrap;html=1;" parent="1" vertex="1">
          <mxGeometry x="200" y="180" width="120" height="30" as="geometry" />
        </mxCell>
        <mxCell id="9tLvCL6xs8VzNFjyvoNF-6" value="&lt;span style=&quot;font-size: 17px;&quot;&gt;&lt;b&gt;동물 진단&lt;/b&gt;&lt;/span&gt;" style="ellipse;whiteSpace=wrap;html=1;" parent="1" vertex="1">
          <mxGeometry x="200" y="350" width="120" height="30" as="geometry" />
        </mxCell>
        <mxCell id="9tLvCL6xs8VzNFjyvoNF-7" value="&lt;font style=&quot;font-size: 15px;&quot;&gt;&lt;b style=&quot;font-size: 15px;&quot;&gt;게시판 글 작성&lt;/b&gt;&lt;/font&gt;" style="ellipse;whiteSpace=wrap;html=1;fontSize=15;" parent="1" vertex="1">
          <mxGeometry x="200" y="400" width="120" height="30" as="geometry" />
        </mxCell>
        <mxCell id="9tLvCL6xs8VzNFjyvoNF-8" value="&lt;font style=&quot;font-size: 15px;&quot;&gt;&lt;b style=&quot;font-size: 15px;&quot;&gt;게시판 글 삭제&lt;/b&gt;&lt;/font&gt;" style="ellipse;whiteSpace=wrap;html=1;fontSize=15;" parent="1" vertex="1">
          <mxGeometry x="200" y="480" width="120" height="30" as="geometry" />
        </mxCell>
        <mxCell id="9tLvCL6xs8VzNFjyvoNF-9" value="&lt;font style=&quot;font-size: 14px;&quot;&gt;&lt;b style=&quot;font-size: 14px;&quot;&gt;갤러리 사진 등록&lt;/b&gt;&lt;/font&gt;" style="ellipse;whiteSpace=wrap;html=1;fontSize=14;" parent="1" vertex="1">
          <mxGeometry x="200" y="530" width="120" height="30" as="geometry" />
        </mxCell>
        <mxCell id="9tLvCL6xs8VzNFjyvoNF-10" value="&lt;font style=&quot;font-size: 14px;&quot;&gt;&lt;b style=&quot;font-size: 14px;&quot;&gt;갤러리 사진 삭제&lt;/b&gt;&lt;/font&gt;" style="ellipse;whiteSpace=wrap;html=1;fontSize=14;" parent="1" vertex="1">
          <mxGeometry x="200" y="610" width="120" height="30" as="geometry" />
        </mxCell>
        <mxCell id="9tLvCL6xs8VzNFjyvoNF-11" value="&lt;span style=&quot;font-size: 17px;&quot;&gt;&lt;b&gt;병원 찾기&lt;/b&gt;&lt;/span&gt;" style="ellipse;whiteSpace=wrap;html=1;" parent="1" vertex="1">
          <mxGeometry x="200" y="230" width="120" height="30" as="geometry" />
        </mxCell>
        <mxCell id="9tLvCL6xs8VzNFjyvoNF-12" value="&lt;span style=&quot;font-size: 17px;&quot;&gt;&lt;b&gt;사용자 인증&lt;/b&gt;&lt;/span&gt;" style="ellipse;whiteSpace=wrap;html=1;" parent="1" vertex="1">
          <mxGeometry x="390" y="450" width="120" height="30" as="geometry" />
        </mxCell>
        <mxCell id="9tLvCL6xs8VzNFjyvoNF-19" value="User" style="shape=umlActor;verticalLabelPosition=bottom;verticalAlign=top;html=1;outlineConnect=0;fontSize=21;fontStyle=1" parent="1" vertex="1">
          <mxGeometry x="50" y="80" width="50" height="100" as="geometry" />
        </mxCell>
        <mxCell id="9tLvCL6xs8VzNFjyvoNF-20" value="Member" style="shape=umlActor;verticalLabelPosition=bottom;verticalAlign=top;html=1;outlineConnect=0;fontSize=21;fontStyle=1" parent="1" vertex="1">
          <mxGeometry x="50" y="460" width="50" height="100" as="geometry" />
        </mxCell>
        <mxCell id="9tLvCL6xs8VzNFjyvoNF-25" value="" style="endArrow=classic;html=1;rounded=0;entryX=0.08;entryY=0.12;entryDx=0;entryDy=0;entryPerimeter=0;exitX=1;exitY=0.5;exitDx=0;exitDy=0;dashed=1;" parent="1" source="9tLvCL6xs8VzNFjyvoNF-6" target="9tLvCL6xs8VzNFjyvoNF-12" edge="1">
          <mxGeometry width="50" height="50" relative="1" as="geometry">
            <mxPoint x="320" y="370" as="sourcePoint" />
            <mxPoint x="430" y="440" as="targetPoint" />
          </mxGeometry>
        </mxCell>
        <mxCell id="9tLvCL6xs8VzNFjyvoNF-26" value="" style="endArrow=classic;html=1;rounded=0;entryX=0;entryY=0.253;entryDx=0;entryDy=0;exitX=1;exitY=0.5;exitDx=0;exitDy=0;dashed=1;entryPerimeter=0;" parent="1" target="9tLvCL6xs8VzNFjyvoNF-12" edge="1">
          <mxGeometry width="50" height="50" relative="1" as="geometry">
            <mxPoint x="410" y="455" as="sourcePoint" />
            <mxPoint x="400" y="530" as="targetPoint" />
          </mxGeometry>
        </mxCell>
        <mxCell id="9tLvCL6xs8VzNFjyvoNF-27" value="&lt;span style=&quot;font-size: 17px;&quot;&gt;&lt;b style=&quot;font-size: 16px;&quot;&gt;공지사항 열람&lt;/b&gt;&lt;/span&gt;" style="ellipse;whiteSpace=wrap;html=1;" parent="1" vertex="1">
          <mxGeometry x="200" y="80" width="120" height="30" as="geometry" />
        </mxCell>
        <mxCell id="9tLvCL6xs8VzNFjyvoNF-28" value="" style="endArrow=classic;html=1;rounded=0;entryX=0;entryY=0.5;entryDx=0;entryDy=0;exitX=1;exitY=0.5;exitDx=0;exitDy=0;dashed=1;" parent="1" source="9tLvCL6xs8VzNFjyvoNF-8" target="9tLvCL6xs8VzNFjyvoNF-12" edge="1">
          <mxGeometry width="50" height="50" relative="1" as="geometry">
            <mxPoint x="330" y="425" as="sourcePoint" />
            <mxPoint x="400" y="468" as="targetPoint" />
          </mxGeometry>
        </mxCell>
        <mxCell id="9tLvCL6xs8VzNFjyvoNF-29" value="" style="endArrow=classic;html=1;rounded=0;entryX=0;entryY=0.787;entryDx=0;entryDy=0;exitX=1;exitY=0.5;exitDx=0;exitDy=0;dashed=1;entryPerimeter=0;" parent="1" source="9tLvCL6xs8VzNFjyvoNF-9" target="9tLvCL6xs8VzNFjyvoNF-12" edge="1">
          <mxGeometry width="50" height="50" relative="1" as="geometry">
            <mxPoint x="340" y="435" as="sourcePoint" />
            <mxPoint x="410" y="478" as="targetPoint" />
          </mxGeometry>
        </mxCell>
        <mxCell id="9tLvCL6xs8VzNFjyvoNF-30" value="" style="endArrow=classic;html=1;rounded=0;entryX=0.067;entryY=0.973;entryDx=0;entryDy=0;exitX=1;exitY=0.5;exitDx=0;exitDy=0;dashed=1;entryPerimeter=0;" parent="1" source="9tLvCL6xs8VzNFjyvoNF-10" target="9tLvCL6xs8VzNFjyvoNF-12" edge="1">
          <mxGeometry width="50" height="50" relative="1" as="geometry">
            <mxPoint x="350" y="445" as="sourcePoint" />
            <mxPoint x="420" y="488" as="targetPoint" />
          </mxGeometry>
        </mxCell>
        <mxCell id="9tLvCL6xs8VzNFjyvoNF-32" value="" style="endArrow=classic;html=1;rounded=0;entryX=0;entryY=0.5;entryDx=0;entryDy=0;" parent="1" target="9tLvCL6xs8VzNFjyvoNF-6" edge="1">
          <mxGeometry width="50" height="50" relative="1" as="geometry">
            <mxPoint x="110" y="510" as="sourcePoint" />
            <mxPoint x="180" y="410" as="targetPoint" />
          </mxGeometry>
        </mxCell>
        <mxCell id="9tLvCL6xs8VzNFjyvoNF-34" value="" style="endArrow=classic;html=1;rounded=0;entryX=0;entryY=0.5;entryDx=0;entryDy=0;" parent="1" target="9tLvCL6xs8VzNFjyvoNF-8" edge="1">
          <mxGeometry width="50" height="50" relative="1" as="geometry">
            <mxPoint x="110" y="510" as="sourcePoint" />
            <mxPoint x="210" y="425" as="targetPoint" />
          </mxGeometry>
        </mxCell>
        <mxCell id="9tLvCL6xs8VzNFjyvoNF-35" value="" style="endArrow=classic;html=1;rounded=0;entryX=0;entryY=0.5;entryDx=0;entryDy=0;" parent="1" target="9tLvCL6xs8VzNFjyvoNF-9" edge="1">
          <mxGeometry width="50" height="50" relative="1" as="geometry">
            <mxPoint x="110" y="510" as="sourcePoint" />
            <mxPoint x="220" y="435" as="targetPoint" />
          </mxGeometry>
        </mxCell>
        <mxCell id="9tLvCL6xs8VzNFjyvoNF-36" value="" style="endArrow=classic;html=1;rounded=0;entryX=0;entryY=0.5;entryDx=0;entryDy=0;" parent="1" target="9tLvCL6xs8VzNFjyvoNF-10" edge="1">
          <mxGeometry width="50" height="50" relative="1" as="geometry">
            <mxPoint x="110" y="510" as="sourcePoint" />
            <mxPoint x="230" y="445" as="targetPoint" />
          </mxGeometry>
        </mxCell>
        <mxCell id="9tLvCL6xs8VzNFjyvoNF-37" value="" style="endArrow=classic;html=1;rounded=0;entryX=0;entryY=0.5;entryDx=0;entryDy=0;" parent="1" edge="1">
          <mxGeometry width="50" height="50" relative="1" as="geometry">
            <mxPoint x="110" y="510" as="sourcePoint" />
            <mxPoint x="200" y="415" as="targetPoint" />
          </mxGeometry>
        </mxCell>
        <mxCell id="9tLvCL6xs8VzNFjyvoNF-38" value="" style="endArrow=classic;html=1;rounded=0;entryX=0;entryY=0.5;entryDx=0;entryDy=0;" parent="1" edge="1">
          <mxGeometry width="50" height="50" relative="1" as="geometry">
            <mxPoint x="110" y="130" as="sourcePoint" />
            <mxPoint x="200" y="45" as="targetPoint" />
          </mxGeometry>
        </mxCell>
        <mxCell id="9tLvCL6xs8VzNFjyvoNF-39" value="" style="endArrow=classic;html=1;rounded=0;entryX=0;entryY=0.5;entryDx=0;entryDy=0;" parent="1" edge="1">
          <mxGeometry width="50" height="50" relative="1" as="geometry">
            <mxPoint x="110" y="130" as="sourcePoint" />
            <mxPoint x="200" y="145" as="targetPoint" />
          </mxGeometry>
        </mxCell>
        <mxCell id="9tLvCL6xs8VzNFjyvoNF-40" value="" style="endArrow=classic;html=1;rounded=0;entryX=0;entryY=0.5;entryDx=0;entryDy=0;" parent="1" edge="1">
          <mxGeometry width="50" height="50" relative="1" as="geometry">
            <mxPoint x="110" y="130" as="sourcePoint" />
            <mxPoint x="200" y="195" as="targetPoint" />
          </mxGeometry>
        </mxCell>
        <mxCell id="9tLvCL6xs8VzNFjyvoNF-41" value="" style="endArrow=classic;html=1;rounded=0;entryX=0;entryY=0.5;entryDx=0;entryDy=0;" parent="1" edge="1">
          <mxGeometry width="50" height="50" relative="1" as="geometry">
            <mxPoint x="110" y="130" as="sourcePoint" />
            <mxPoint x="200" y="245" as="targetPoint" />
          </mxGeometry>
        </mxCell>
        <mxCell id="9tLvCL6xs8VzNFjyvoNF-42" value="" style="endArrow=classic;html=1;rounded=0;entryX=0;entryY=0.5;entryDx=0;entryDy=0;" parent="1" edge="1">
          <mxGeometry width="50" height="50" relative="1" as="geometry">
            <mxPoint x="110" y="130" as="sourcePoint" />
            <mxPoint x="200" y="95" as="targetPoint" />
          </mxGeometry>
        </mxCell>
        <mxCell id="9tLvCL6xs8VzNFjyvoNF-45" value="" style="endArrow=block;html=1;rounded=0;endFill=0;" parent="1" edge="1">
          <mxGeometry width="50" height="50" relative="1" as="geometry">
            <mxPoint x="75" y="380" as="sourcePoint" />
            <mxPoint x="74.5" y="220" as="targetPoint" />
          </mxGeometry>
        </mxCell>
        <mxCell id="9tLvCL6xs8VzNFjyvoNF-47" value="Administrator" style="shape=umlActor;verticalLabelPosition=bottom;verticalAlign=top;html=1;outlineConnect=0;fontSize=21;fontStyle=1" parent="1" vertex="1">
          <mxGeometry x="905.64" y="395" width="50" height="100" as="geometry" />
        </mxCell>
        <mxCell id="9tLvCL6xs8VzNFjyvoNF-50" value="&lt;font style=&quot;font-size: 17px;&quot;&gt;&lt;b&gt;회원관리&lt;/b&gt;&lt;/font&gt;" style="ellipse;whiteSpace=wrap;html=1;" parent="1" vertex="1">
          <mxGeometry x="655.64" y="280" width="120" height="30" as="geometry" />
        </mxCell>
        <mxCell id="9tLvCL6xs8VzNFjyvoNF-53" style="edgeStyle=orthogonalEdgeStyle;rounded=0;orthogonalLoop=1;jettySize=auto;html=1;exitX=0.5;exitY=0;exitDx=0;exitDy=0;entryX=0.5;entryY=1;entryDx=0;entryDy=0;" parent="1" source="9tLvCL6xs8VzNFjyvoNF-51" target="9tLvCL6xs8VzNFjyvoNF-50" edge="1">
          <mxGeometry relative="1" as="geometry">
            <Array as="points">
              <mxPoint x="650.64" y="330" />
              <mxPoint x="715.64" y="330" />
            </Array>
          </mxGeometry>
        </mxCell>
        <mxCell id="9tLvCL6xs8VzNFjyvoNF-51" value="&lt;font style=&quot;font-size: 17px;&quot;&gt;&lt;b&gt;회원조회&lt;/b&gt;&lt;/font&gt;" style="ellipse;whiteSpace=wrap;html=1;" parent="1" vertex="1">
          <mxGeometry x="590.64" y="340" width="120" height="30" as="geometry" />
        </mxCell>
        <mxCell id="9tLvCL6xs8VzNFjyvoNF-54" style="edgeStyle=orthogonalEdgeStyle;rounded=0;orthogonalLoop=1;jettySize=auto;html=1;exitX=0.5;exitY=0;exitDx=0;exitDy=0;entryX=0.5;entryY=1;entryDx=0;entryDy=0;" parent="1" source="9tLvCL6xs8VzNFjyvoNF-52" target="9tLvCL6xs8VzNFjyvoNF-50" edge="1">
          <mxGeometry relative="1" as="geometry">
            <Array as="points">
              <mxPoint x="780.64" y="330" />
              <mxPoint x="715.64" y="330" />
            </Array>
          </mxGeometry>
        </mxCell>
        <mxCell id="9tLvCL6xs8VzNFjyvoNF-52" value="&lt;font style=&quot;font-size: 17px;&quot;&gt;&lt;b&gt;회원삭제&lt;/b&gt;&lt;/font&gt;" style="ellipse;whiteSpace=wrap;html=1;" parent="1" vertex="1">
          <mxGeometry x="720.64" y="340" width="120" height="30" as="geometry" />
        </mxCell>
        <mxCell id="9tLvCL6xs8VzNFjyvoNF-55" value="&lt;font style=&quot;font-size: 17px;&quot;&gt;&lt;b style=&quot;font-size: 15px;&quot;&gt;공지사항 관리&lt;/b&gt;&lt;/font&gt;" style="ellipse;whiteSpace=wrap;html=1;" parent="1" vertex="1">
          <mxGeometry x="655.64" y="395" width="120" height="30" as="geometry" />
        </mxCell>
        <mxCell id="9tLvCL6xs8VzNFjyvoNF-56" style="edgeStyle=orthogonalEdgeStyle;rounded=0;orthogonalLoop=1;jettySize=auto;html=1;exitX=0.5;exitY=0;exitDx=0;exitDy=0;entryX=0.5;entryY=1;entryDx=0;entryDy=0;" parent="1" source="9tLvCL6xs8VzNFjyvoNF-57" target="9tLvCL6xs8VzNFjyvoNF-55" edge="1">
          <mxGeometry relative="1" as="geometry">
            <Array as="points">
              <mxPoint x="600" y="445" />
              <mxPoint x="716" y="445" />
            </Array>
          </mxGeometry>
        </mxCell>
        <mxCell id="9tLvCL6xs8VzNFjyvoNF-57" value="&lt;font style=&quot;font-size: 13px;&quot;&gt;&lt;b style=&quot;font-size: 13px;&quot;&gt;공지사항 작성&lt;/b&gt;&lt;/font&gt;" style="ellipse;whiteSpace=wrap;html=1;fontSize=13;" parent="1" vertex="1">
          <mxGeometry x="552.82" y="454" width="100" height="30" as="geometry" />
        </mxCell>
        <mxCell id="9tLvCL6xs8VzNFjyvoNF-58" style="edgeStyle=orthogonalEdgeStyle;rounded=0;orthogonalLoop=1;jettySize=auto;html=1;exitX=0.5;exitY=0;exitDx=0;exitDy=0;entryX=0.5;entryY=1;entryDx=0;entryDy=0;" parent="1" source="9tLvCL6xs8VzNFjyvoNF-59" target="9tLvCL6xs8VzNFjyvoNF-55" edge="1">
          <mxGeometry relative="1" as="geometry">
            <Array as="points">
              <mxPoint x="826" y="445" />
              <mxPoint x="716" y="445" />
            </Array>
          </mxGeometry>
        </mxCell>
        <mxCell id="9tLvCL6xs8VzNFjyvoNF-59" value="&lt;font style=&quot;font-size: 13px;&quot;&gt;&lt;b style=&quot;font-size: 13px;&quot;&gt;공지사항 삭제&lt;/b&gt;&lt;/font&gt;" style="ellipse;whiteSpace=wrap;html=1;fontSize=13;" parent="1" vertex="1">
          <mxGeometry x="772.82" y="454" width="105.64" height="30" as="geometry" />
        </mxCell>
        <mxCell id="9tLvCL6xs8VzNFjyvoNF-60" value="" style="endArrow=classic;html=1;rounded=0;entryX=0.78;entryY=-0.067;entryDx=0;entryDy=0;entryPerimeter=0;exitX=0;exitY=0.5;exitDx=0;exitDy=0;dashed=1;" parent="1" source="9tLvCL6xs8VzNFjyvoNF-50" target="9tLvCL6xs8VzNFjyvoNF-12" edge="1">
          <mxGeometry width="50" height="50" relative="1" as="geometry">
            <mxPoint x="330" y="305" as="sourcePoint" />
            <mxPoint x="410" y="394" as="targetPoint" />
          </mxGeometry>
        </mxCell>
        <mxCell id="9tLvCL6xs8VzNFjyvoNF-61" value="" style="endArrow=classic;html=1;rounded=0;exitX=0;exitY=0.5;exitDx=0;exitDy=0;dashed=1;" parent="1" source="9tLvCL6xs8VzNFjyvoNF-55" edge="1">
          <mxGeometry width="50" height="50" relative="1" as="geometry">
            <mxPoint x="340" y="385" as="sourcePoint" />
            <mxPoint x="500" y="454" as="targetPoint" />
          </mxGeometry>
        </mxCell>
        <mxCell id="9tLvCL6xs8VzNFjyvoNF-62" value="&lt;font style=&quot;font-size: 14px;&quot;&gt;&lt;b style=&quot;font-size: 14px;&quot;&gt;갤러리 사진 삭제&lt;/b&gt;&lt;/font&gt;" style="ellipse;whiteSpace=wrap;html=1;fontSize=14;" parent="1" vertex="1">
          <mxGeometry x="655.64" y="545" width="120" height="30" as="geometry" />
        </mxCell>
        <mxCell id="9tLvCL6xs8VzNFjyvoNF-63" value="&lt;font style=&quot;font-size: 15px;&quot;&gt;&lt;b style=&quot;font-size: 15px;&quot;&gt;게시판 글 삭제&lt;/b&gt;&lt;/font&gt;" style="ellipse;whiteSpace=wrap;html=1;fontSize=15;" parent="1" vertex="1">
          <mxGeometry x="655.64" y="600" width="120" height="30" as="geometry" />
        </mxCell>
        <mxCell id="9tLvCL6xs8VzNFjyvoNF-65" value="" style="endArrow=classic;html=1;rounded=0;entryX=1;entryY=0.5;entryDx=0;entryDy=0;exitX=0;exitY=0.5;exitDx=0;exitDy=0;dashed=1;" parent="1" source="9tLvCL6xs8VzNFjyvoNF-62" target="9tLvCL6xs8VzNFjyvoNF-12" edge="1">
          <mxGeometry width="50" height="50" relative="1" as="geometry">
            <mxPoint x="395.64" y="540" as="sourcePoint" />
            <mxPoint x="570.0000000000001" y="621" as="targetPoint" />
          </mxGeometry>
        </mxCell>
        <mxCell id="9tLvCL6xs8VzNFjyvoNF-66" value="" style="endArrow=classic;html=1;rounded=0;entryX=1;entryY=1;entryDx=0;entryDy=0;exitX=0;exitY=0.5;exitDx=0;exitDy=0;dashed=1;" parent="1" source="9tLvCL6xs8VzNFjyvoNF-63" target="9tLvCL6xs8VzNFjyvoNF-12" edge="1">
          <mxGeometry width="50" height="50" relative="1" as="geometry">
            <mxPoint x="405.64" y="550" as="sourcePoint" />
            <mxPoint x="575.64" y="630" as="targetPoint" />
          </mxGeometry>
        </mxCell>
        <mxCell id="9tLvCL6xs8VzNFjyvoNF-67" value="" style="endArrow=classic;html=1;rounded=0;entryX=1;entryY=0.5;entryDx=0;entryDy=0;" parent="1" target="9tLvCL6xs8VzNFjyvoNF-50" edge="1">
          <mxGeometry width="50" height="50" relative="1" as="geometry">
            <mxPoint x="890" y="440" as="sourcePoint" />
            <mxPoint x="930.64" y="235" as="targetPoint" />
          </mxGeometry>
        </mxCell>
        <mxCell id="9tLvCL6xs8VzNFjyvoNF-68" value="" style="endArrow=classic;html=1;rounded=0;entryX=1;entryY=0.5;entryDx=0;entryDy=0;" parent="1" target="9tLvCL6xs8VzNFjyvoNF-55" edge="1">
          <mxGeometry width="50" height="50" relative="1" as="geometry">
            <mxPoint x="895.64" y="445" as="sourcePoint" />
            <mxPoint x="785.64" y="300" as="targetPoint" />
          </mxGeometry>
        </mxCell>
        <mxCell id="9tLvCL6xs8VzNFjyvoNF-69" value="" style="endArrow=classic;html=1;rounded=0;entryX=1;entryY=0.5;entryDx=0;entryDy=0;" parent="1" target="9tLvCL6xs8VzNFjyvoNF-62" edge="1">
          <mxGeometry width="50" height="50" relative="1" as="geometry">
            <mxPoint x="895.64" y="445" as="sourcePoint" />
            <mxPoint x="795.64" y="310" as="targetPoint" />
          </mxGeometry>
        </mxCell>
        <mxCell id="9tLvCL6xs8VzNFjyvoNF-70" value="" style="endArrow=classic;html=1;rounded=0;entryX=1;entryY=0.5;entryDx=0;entryDy=0;" parent="1" target="9tLvCL6xs8VzNFjyvoNF-63" edge="1">
          <mxGeometry width="50" height="50" relative="1" as="geometry">
            <mxPoint x="895.64" y="445" as="sourcePoint" />
            <mxPoint x="805.64" y="320" as="targetPoint" />
          </mxGeometry>
        </mxCell>
        <mxCell id="9tLvCL6xs8VzNFjyvoNF-71" value="&lt;font style=&quot;font-size: 17px;&quot;&gt;&lt;b style=&quot;font-size: 16px;&quot;&gt;개인정보 관리&lt;/b&gt;&lt;/font&gt;" style="ellipse;whiteSpace=wrap;html=1;" parent="1" vertex="1">
          <mxGeometry x="200" y="660" width="120" height="30" as="geometry" />
        </mxCell>
        <mxCell id="9tLvCL6xs8VzNFjyvoNF-72" style="edgeStyle=orthogonalEdgeStyle;rounded=0;orthogonalLoop=1;jettySize=auto;html=1;exitX=0.5;exitY=0;exitDx=0;exitDy=0;entryX=0.5;entryY=1;entryDx=0;entryDy=0;" parent="1" source="9tLvCL6xs8VzNFjyvoNF-73" target="9tLvCL6xs8VzNFjyvoNF-71" edge="1">
          <mxGeometry relative="1" as="geometry">
            <Array as="points">
              <mxPoint x="195" y="710" />
              <mxPoint x="260" y="710" />
            </Array>
          </mxGeometry>
        </mxCell>
        <mxCell id="9tLvCL6xs8VzNFjyvoNF-73" value="&lt;font style=&quot;font-size: 17px;&quot;&gt;&lt;b&gt;개인정보 수정&lt;/b&gt;&lt;/font&gt;" style="ellipse;whiteSpace=wrap;html=1;" parent="1" vertex="1">
          <mxGeometry x="135" y="720" width="120" height="30" as="geometry" />
        </mxCell>
        <mxCell id="9tLvCL6xs8VzNFjyvoNF-74" style="edgeStyle=orthogonalEdgeStyle;rounded=0;orthogonalLoop=1;jettySize=auto;html=1;exitX=0.5;exitY=0;exitDx=0;exitDy=0;entryX=0.5;entryY=1;entryDx=0;entryDy=0;" parent="1" source="9tLvCL6xs8VzNFjyvoNF-75" target="9tLvCL6xs8VzNFjyvoNF-71" edge="1">
          <mxGeometry relative="1" as="geometry">
            <Array as="points">
              <mxPoint x="325" y="710" />
              <mxPoint x="260" y="710" />
            </Array>
          </mxGeometry>
        </mxCell>
        <mxCell id="9tLvCL6xs8VzNFjyvoNF-75" value="&lt;span style=&quot;font-size: 17px;&quot;&gt;&lt;b&gt;회원 탈퇴&lt;/b&gt;&lt;/span&gt;" style="ellipse;whiteSpace=wrap;html=1;" parent="1" vertex="1">
          <mxGeometry x="265" y="720" width="120" height="30" as="geometry" />
        </mxCell>
        <mxCell id="9tLvCL6xs8VzNFjyvoNF-76" value="" style="endArrow=classic;html=1;rounded=0;entryX=0;entryY=0.5;entryDx=0;entryDy=0;" parent="1" target="9tLvCL6xs8VzNFjyvoNF-71" edge="1">
          <mxGeometry width="50" height="50" relative="1" as="geometry">
            <mxPoint x="110" y="510" as="sourcePoint" />
            <mxPoint x="210" y="575" as="targetPoint" />
          </mxGeometry>
        </mxCell>
        <mxCell id="9tLvCL6xs8VzNFjyvoNF-77" value="&lt;font style=&quot;font-size: 15px;&quot;&gt;&lt;b style=&quot;font-size: 15px;&quot;&gt;게시판 글 수정&lt;/b&gt;&lt;/font&gt;" style="ellipse;whiteSpace=wrap;html=1;fontSize=15;" parent="1" vertex="1">
          <mxGeometry x="200" y="440" width="120" height="30" as="geometry" />
        </mxCell>
        <mxCell id="9tLvCL6xs8VzNFjyvoNF-78" value="&lt;font style=&quot;font-size: 14px;&quot;&gt;&lt;b style=&quot;font-size: 14px;&quot;&gt;갤러리 사진 수정&lt;/b&gt;&lt;/font&gt;" style="ellipse;whiteSpace=wrap;html=1;fontSize=14;" parent="1" vertex="1">
          <mxGeometry x="200" y="570" width="120" height="30" as="geometry" />
        </mxCell>
        <mxCell id="9tLvCL6xs8VzNFjyvoNF-81" style="edgeStyle=orthogonalEdgeStyle;rounded=0;orthogonalLoop=1;jettySize=auto;html=1;exitX=0.5;exitY=0;exitDx=0;exitDy=0;entryX=0.5;entryY=1;entryDx=0;entryDy=0;" parent="1" source="9tLvCL6xs8VzNFjyvoNF-80" target="9tLvCL6xs8VzNFjyvoNF-55" edge="1">
          <mxGeometry relative="1" as="geometry" />
        </mxCell>
        <mxCell id="9tLvCL6xs8VzNFjyvoNF-80" value="&lt;font style=&quot;font-size: 13px;&quot;&gt;&lt;b style=&quot;font-size: 13px;&quot;&gt;공지사항 수정&lt;/b&gt;&lt;/font&gt;" style="ellipse;whiteSpace=wrap;html=1;fontSize=13;" parent="1" vertex="1">
          <mxGeometry x="662.82" y="454" width="105.64" height="30" as="geometry" />
        </mxCell>
        <mxCell id="9tLvCL6xs8VzNFjyvoNF-82" value="" style="endArrow=classic;html=1;rounded=0;entryX=0;entryY=0.5;entryDx=0;entryDy=0;" parent="1" edge="1">
          <mxGeometry width="50" height="50" relative="1" as="geometry">
            <mxPoint x="110" y="510" as="sourcePoint" />
            <mxPoint x="200" y="460" as="targetPoint" />
          </mxGeometry>
        </mxCell>
        <mxCell id="9tLvCL6xs8VzNFjyvoNF-83" value="" style="endArrow=classic;html=1;rounded=0;entryX=0;entryY=0.5;entryDx=0;entryDy=0;" parent="1" edge="1">
          <mxGeometry width="50" height="50" relative="1" as="geometry">
            <mxPoint x="110" y="510" as="sourcePoint" />
            <mxPoint x="200" y="585" as="targetPoint" />
          </mxGeometry>
        </mxCell>
        <mxCell id="9tLvCL6xs8VzNFjyvoNF-84" value="" style="endArrow=classic;html=1;rounded=0;exitX=1;exitY=0.5;exitDx=0;exitDy=0;dashed=1;" parent="1" edge="1">
          <mxGeometry width="50" height="50" relative="1" as="geometry">
            <mxPoint x="320" y="460" as="sourcePoint" />
            <mxPoint x="390" y="460" as="targetPoint" />
          </mxGeometry>
        </mxCell>
        <mxCell id="9tLvCL6xs8VzNFjyvoNF-85" value="" style="endArrow=classic;html=1;rounded=0;exitX=1;exitY=0.5;exitDx=0;exitDy=0;dashed=1;" parent="1" edge="1">
          <mxGeometry width="50" height="50" relative="1" as="geometry">
            <mxPoint x="320" y="590" as="sourcePoint" />
            <mxPoint x="390" y="480" as="targetPoint" />
          </mxGeometry>
        </mxCell>
        <mxCell id="2Q2Cho8lUAg0c4k7yNGK-2" value="" style="endArrow=classic;html=1;rounded=0;exitX=1;exitY=0.5;exitDx=0;exitDy=0;dashed=1;entryX=0.017;entryY=0.2;entryDx=0;entryDy=0;entryPerimeter=0;" edge="1" parent="1" source="9tLvCL6xs8VzNFjyvoNF-7" target="9tLvCL6xs8VzNFjyvoNF-12">
          <mxGeometry width="50" height="50" relative="1" as="geometry">
            <mxPoint x="320" y="415" as="sourcePoint" />
            <mxPoint x="310" y="435" as="targetPoint" />
          </mxGeometry>
        </mxCell>
        <mxCell id="2Q2Cho8lUAg0c4k7yNGK-3" value="&lt;font style=&quot;font-size: 17px;&quot;&gt;&lt;b&gt;댓글 작성&lt;/b&gt;&lt;/font&gt;" style="ellipse;whiteSpace=wrap;html=1;" vertex="1" parent="1">
          <mxGeometry x="200" y="310" width="120" height="30" as="geometry" />
        </mxCell>
        <mxCell id="2Q2Cho8lUAg0c4k7yNGK-4" value="" style="endArrow=classic;html=1;rounded=0;" edge="1" parent="1">
          <mxGeometry width="50" height="50" relative="1" as="geometry">
            <mxPoint x="520" y="450" as="sourcePoint" />
            <mxPoint x="570" y="400" as="targetPoint" />
          </mxGeometry>
        </mxCell>
        <mxCell id="2Q2Cho8lUAg0c4k7yNGK-5" value="" style="endArrow=classic;html=1;rounded=0;" edge="1" parent="1">
          <mxGeometry width="50" height="50" relative="1" as="geometry">
            <mxPoint x="520" y="450" as="sourcePoint" />
            <mxPoint x="570" y="400" as="targetPoint" />
          </mxGeometry>
        </mxCell>
        <mxCell id="2Q2Cho8lUAg0c4k7yNGK-6" value="" style="endArrow=classic;html=1;rounded=0;entryX=0;entryY=0.5;entryDx=0;entryDy=0;" edge="1" parent="1" target="2Q2Cho8lUAg0c4k7yNGK-3">
          <mxGeometry width="50" height="50" relative="1" as="geometry">
            <mxPoint x="110" y="510" as="sourcePoint" />
            <mxPoint x="120" y="410" as="targetPoint" />
          </mxGeometry>
        </mxCell>
        <mxCell id="2Q2Cho8lUAg0c4k7yNGK-7" value="" style="endArrow=classic;html=1;rounded=0;" edge="1" parent="1">
          <mxGeometry width="50" height="50" relative="1" as="geometry">
            <mxPoint x="520" y="450" as="sourcePoint" />
            <mxPoint x="570" y="400" as="targetPoint" />
          </mxGeometry>
        </mxCell>
        <mxCell id="2Q2Cho8lUAg0c4k7yNGK-8" value="" style="endArrow=classic;html=1;rounded=0;dashed=1;entryX=0;entryY=0;entryDx=0;entryDy=0;exitX=1;exitY=0.5;exitDx=0;exitDy=0;" edge="1" parent="1" source="2Q2Cho8lUAg0c4k7yNGK-3" target="9tLvCL6xs8VzNFjyvoNF-12">
          <mxGeometry width="50" height="50" relative="1" as="geometry">
            <mxPoint x="410" y="320" as="sourcePoint" />
            <mxPoint x="460" y="270" as="targetPoint" />
          </mxGeometry>
        </mxCell>
      </root>
    </mxGraphModel>
  </diagram>
</mxfile>
